<?xml version="1.0" encoding="utf-8"?>
<!-- Generator: Adobe Illustrator 26.5.2, SVG Export Plug-In . SVG Version: 6.00 Build 0)  -->
<svg version="1.1" id="Layer_1" xmlns="http://www.w3.org/2000/svg" xmlns:xlink="http://www.w3.org/1999/xlink" x="0px" y="0px"
	 viewBox="0 0 2370.7 2328.3" style="enable-background:new 0 0 2370.7 2328.3;" xml:space="preserve">
<style type="text/css">
	.st0{fill:none;}
	.st1{opacity:0.5;}
	.st2{fill:#BEB8F2;}
	.st3{fill:#FCFDFE;}
	.st4{fill:url(#SVGID_1_);}
	.st5{fill:#D8DEE8;}
	.st6{fill:url(#SVGID_00000177464137477884638660000004397547600530835635_);}
	.st7{fill:url(#SVGID_00000038382877161354771770000013916306774464007824_);}
	.st8{fill:url(#SVGID_00000036230884775002321910000011656681637246948530_);}
	.st9{fill:url(#SVGID_00000172400879118722243320000000162220313936412572_);}
	.st10{fill:url(#SVGID_00000131340998398680198330000002067908057720175744_);}
</style>
<g>
	<g id="Background">
		<polyline class="st0" points="-362.8,2856.1 -362.8,-853.9 3347.2,-853.9 		"/>
	</g>
	<g id="Illustration">
		<g>
			<g>
				<g>
					<g>
						<g class="st1">
							<path class="st2" d="M1039.5,686.5c27.2-206.8,296.7-284.4,299.4-285l-0.6-4.3c-2.7,0.3-275.7,80-303.1,288.7L1039.5,686.5
								L1039.5,686.5z"/>
							<path class="st2" d="M1029.5,601l4.1-1.3c-40.2-126.9-190-201.7-191.5-202.4l-1.9,3.9C841.7,401.9,989.8,476,1029.5,601
								L1029.5,601z"/>
							<path class="st2" d="M1092.2,1000.5c-1.9-79.2,103.9-152.9,105-153.7l-2.4-3.6c-4.4,3.1-108.8,75.8-106.9,157.3
								L1092.2,1000.5L1092.2,1000.5z"/>
							<path class="st2" d="M1073.9,940l4.2-1.2c-16.8-60.4-116.7-119.3-149.5-138.6c-4.6-2.7-8.6-5.1-9.3-5.7l-2.9,3.2
								c0.9,0.8,3.5,2.4,10,6.2C958.9,823,1057.6,881.3,1073.9,940L1073.9,940z"/>
						</g>
					</g>
				</g>
				<g>
					<g>
						<g>
							<g class="st1">
								<path class="st3" d="M941.6,640.1l-3,1.9c-36.3-61.3,3.9-165.8,4.3-166.9l3.2,1.1C945.8,477.3,906.2,580.3,941.6,640.1
									L941.6,640.1z"/>
								<path class="st3" d="M966.3,668.8c-54.7-18.8-117.8-21.9-192.9-9.7l-0.3-3.4c75.7-12.3,139.3-9.1,194.6,9.8L966.3,668.8z"/>
							</g>
						</g>
					</g>
				</g>
				<g>
					<g>
						<g>
							<g class="st1">
								<path class="st3" d="M953.1,661.4l-5.9,2.1c-52.7-166.1,159.3-422.7,161.4-425.3l4.6,3.7
									C1111.2,244.5,901.4,498.5,953.1,661.4z"/>
							</g>
						</g>
					</g>
				</g>
			</g>
			<g>
				
					<linearGradient id="SVGID_1_" gradientUnits="userSpaceOnUse" x1="1009.5929" y1="1321.4373" x2="1200.343" y2="630.6073" gradientTransform="matrix(0.9932 0.1168 0.1168 -0.9932 53.0677 1724.9878)">
					<stop  offset="0" style="stop-color:#FFC444"/>
					<stop  offset="1" style="stop-color:#F36F56"/>
				</linearGradient>
				<path class="st4" d="M221.6,770.3l1209.2-697c63.4-36.5,144.2-19.1,186.8,40.3l704.2,980.3l-966.7,346.9L221.6,770.3z"/>
				<path class="st5" d="M232.1,794.3l1209.2-697c63.4-36.5,144.2-19.1,186.8,40.3l704.2,980.3l-966.7,346.9L232.1,794.3z"/>
				
					<linearGradient id="SVGID_00000067931451194312136220000008963297482847724416_" gradientUnits="userSpaceOnUse" x1="467.6944" y1="278.0553" x2="-413.3657" y2="184.5354" gradientTransform="matrix(0.9932 0.1168 0.1168 -0.9932 53.0677 1724.9878)">
					<stop  offset="0" style="stop-color:#FFC444"/>
					<stop  offset="1" style="stop-color:#F36F56"/>
				</linearGradient>
				<path style="fill:url(#SVGID_00000067931451194312136220000008963297482847724416_);" d="M2238.8,1059.5L273.1,759.3
					c-41.5-6.3-80,23-84.9,64.7L38.6,2096c-5,42.9,27.4,81,70.6,82.8l1991.1,84c38.8,1.6,72.3-26.9,76.8-65.5l124.2-1055.9
					C2305.9,1101.8,2278.3,1065.5,2238.8,1059.5L2238.8,1059.5z"/>
				
					<linearGradient id="SVGID_00000181060370415642894150000006109127372417774752_" gradientUnits="userSpaceOnUse" x1="938.3131" y1="662.637" x2="1671.7031" y2="-961.653" gradientTransform="matrix(0.9932 0.1168 0.1168 -0.9932 53.0677 1724.9878)">
					<stop  offset="0" style="stop-color:#FFC444"/>
					<stop  offset="1" style="stop-color:#F36F56"/>
				</linearGradient>
				<path style="fill:url(#SVGID_00000181060370415642894150000006109127372417774752_);" d="M2272.7,1063.5L307,763.3
					c-41.5-6.3-80,23-84.9,64.7L72.5,2100c-5,42.9,27.4,81,70.6,82.8l1991.1,84c38.8,1.6,72.3-26.9,76.8-65.5l124.2-1055.9
					C2339.9,1105.8,2312.2,1069.5,2272.7,1063.5L2272.7,1063.5z"/>
				<g>
					
						<linearGradient id="SVGID_00000022558730520181396460000004326975173626026942_" gradientUnits="userSpaceOnUse" x1="1112.7246" y1="447.3686" x2="1184.9146" y2="2024.7085" gradientTransform="matrix(0.9932 0.1168 0.1168 -0.9932 53.0677 1724.9878)">
						<stop  offset="0" style="stop-color:#FFC444"/>
						<stop  offset="1" style="stop-color:#F36F56"/>
					</linearGradient>
					<path style="fill:url(#SVGID_00000022558730520181396460000004326975173626026942_);" d="M1414.6,1679.7l907.3-585.8
						c-11.2-15.8-28.6-27.3-49.3-30.5L307,763.3c-18.7-2.9-36.8,1.6-51.5,11L1271.2,1669C1311.2,1704.3,1369.8,1708.6,1414.6,1679.7
						z"/>
					
						<linearGradient id="SVGID_00000085969912770747187860000000955376712787327160_" gradientUnits="userSpaceOnUse" x1="938.2975" y1="662.629" x2="1671.6877" y2="-961.661" gradientTransform="matrix(0.9932 0.1168 0.1168 -0.9932 53.0677 1724.9878)">
						<stop  offset="0" style="stop-color:#FFC444"/>
						<stop  offset="1" style="stop-color:#F36F56"/>
					</linearGradient>
					<path style="fill:url(#SVGID_00000085969912770747187860000000955376712787327160_);" d="M1414.6,1679.7
						c-44.8,28.9-103.4,24.6-143.4-10.7L255.6,774.3c-17.9,11.6-30.8,30.7-33.4,53.7L72.5,2100c-5,42.9,27.4,81,70.6,82.8l1991.1,84
						c38.8,1.6,72.3-26.9,76.8-65.5l124.2-1055.9c2.2-19-3-37.1-13.2-51.6L1414.6,1679.7L1414.6,1679.7z"/>
				</g>
				
					<linearGradient id="SVGID_00000110450011939936504660000006231222107439512255_" gradientUnits="userSpaceOnUse" x1="1184.5728" y1="1634.4369" x2="1077.4827" y2="118.2569" gradientTransform="matrix(0.9932 0.1168 0.1168 -0.9932 53.0677 1724.9878)">
					<stop  offset="0" style="stop-color:#FFFFFF"/>
					<stop  offset="1" style="stop-color:#D8DEE8"/>
				</linearGradient>
				<path style="fill:url(#SVGID_00000110450011939936504660000006231222107439512255_);" d="M1414.6,1679.7l907.3-585.8
					c-11.2-15.8-28.6-27.3-49.3-30.5L307,763.3c-18.7-2.9-36.8,1.6-51.5,11L1271.2,1669C1311.2,1704.3,1369.8,1708.6,1414.6,1679.7z
					"/>
			</g>
		</g>
	</g>
</g>
</svg>
